<?xml version="1.0" encoding="iso-8859-1"?>
<!-- Generator: Adobe Illustrator 19.1.0, SVG Export Plug-In . SVG Version: 6.00 Build 0)  -->
<svg xmlns="http://www.w3.org/2000/svg" xmlns:xlink="http://www.w3.org/1999/xlink" version="1.1" id="Capa_1" x="0px" y="0px" viewBox="0 0 64.414 64.414" style="enable-background:new 0 0 64.414 64.414;" xml:space="preserve" width="512px" height="512px">
<g>
	<g>
		<path d="M21,42c5.431,0,10.37-2.089,14.102-5.484L39.586,41l-3,3L57,64.414L64.414,57L44,36.586l-3,3l-4.484-4.484    C39.91,31.37,42,26.431,42,21C42,9.42,32.579,0,21,0S0,9.42,0,21S9.421,42,21,42z M61.586,57L57,61.586L39.414,44L44,39.414    L61.586,57z M21,2c10.477,0,19,8.523,19,19s-8.523,19-19,19S2,31.477,2,21S10.523,2,21,2z" fill="#000000"/>
	</g>
</g>
<g>
</g>
<g>
</g>
<g>
</g>
<g>
</g>
<g>
</g>
<g>
</g>
<g>
</g>
<g>
</g>
<g>
</g>
<g>
</g>
<g>
</g>
<g>
</g>
<g>
</g>
<g>
</g>
<g>
</g>
</svg>
